<svg xmlns="http://www.w3.org/2000/svg" viewBox="0 0 25.99 23.35"><defs><style>.cls-1{fill:#fff;}</style></defs><g id="Layer_2" data-name="Layer 2"><g id="Layer_1-2" data-name="Layer 1"><path class="cls-1" d="M24.07,0a3.34,3.34,0,0,0-.93.22h0l-3.7,1.55L12.05,4.88,1.55,9.31l.06,0a3.33,3.33,0,0,0-.74.38,2,2,0,0,0-.58.56A1.73,1.73,0,0,0,0,11.33a2,2,0,0,0,.9,1.4,2.94,2.94,0,0,0,.66.35h0l4.88,1.65c.22.7,1.49,4.87,1.79,5.83a3.49,3.49,0,0,0,.58,1.21,1.27,1.27,0,0,0,.38.35.76.76,0,0,0,.18.09l.06,0h0l0,0,.12,0A1.66,1.66,0,0,0,11,22l0,0,2.88-2.63,4.83,3.71.11.05a2.58,2.58,0,0,0,2.57-.24,2.63,2.63,0,0,0,.75-1l0-.09L25.9,2.66a2.77,2.77,0,0,0,0-1.34,1.85,1.85,0,0,0-.78-1A1.92,1.92,0,0,0,24.07,0ZM24,2.05a.73.73,0,0,1,0,.18h0l-3.7,18.93a.34.34,0,0,1-.12.14c-.08.07-.14.11-.46,0l-5.91-4.53L10.19,20l.75-4.79,9.65-9c.4-.37.27-.45.27-.45,0-.45-.6-.13-.6-.13L8.08,13.18v0l-5.84-2h0l0,0h0L12.83,6.72l7.38-3.1,3.66-1.54C24,2.05,23.91,2.05,24,2.05Z"/></g></g></svg>