<svg xmlns="http://www.w3.org/2000/svg" viewBox="0 0 450.41 370.32"><defs><style>.cls-1{fill:#fff;}</style></defs><g id="Layer_2" data-name="Layer 2"><g id="Layer_1-2" data-name="Layer 1"><path class="cls-1" d="M448.63,45.88a10,10,0,0,0-12.16-3.51c-3.37,1.45-7.52,3.12-12,4.79,8-10.45,12.46-20.66,13.37-30.47A10,10,0,0,0,422.2,7.56c-7.51,5.23-29.44,18.22-46.37,20-9-8-34.52-27.58-69-27.58-24,0-47.29,9.49-69.17,28.2l-.42.39c-1.56,1.49-34.82,34.08-27.86,80.05a222.33,222.33,0,0,1-48.84-11.08C117.72,82.77,79.8,56.75,47.88,20.2a10,10,0,0,0-16.17,1.53A113.31,113.31,0,0,0,18.6,66.54a91.45,91.45,0,0,0,14.88,58.15,10,10,0,0,0-15.09,7.62c-.08.76-1.68,18.72,7.07,39.71a94.29,94.29,0,0,0,33.36,41,10,10,0,0,0-10,12.43c.16.63,4,15.59,17,31.46,9.11,11.1,24.26,24.45,48,32.26C96,299,66.82,311.3,31.56,311.3A151.71,151.71,0,0,1,11.34,310a10,10,0,0,0-7.82,17.52c1.87,1.6,47,39.09,147.6,42.74,2.11.08,4.27.11,6.42.11,56.16,0,117.09-25.07,163-67.07,38.66-35.36,84.64-98.95,85.82-201.83l41.26-42.93A10,10,0,0,0,448.63,45.88ZM389.17,90.44a10,10,0,0,0-2.79,6.93c0,98-43.14,158-79.34,191.13-42.32,38.71-98.21,61.83-149.5,61.83-1.91,0-3.83,0-5.7-.11C105.77,348.55,72.21,339.29,50,330.33c55.91-5.9,93.69-36.6,95.43-38a10,10,0,0,0-5.1-17.63c-38.74-5-57.45-25.74-65.91-40.06a102.44,102.44,0,0,0,26.27-4.5,10,10,0,0,0-.2-19C55.16,197,42.65,167.24,39.34,149.14a197.7,197.7,0,0,0,25.82,5.42,10,10,0,0,0,7.4-17.94C30.05,105.16,36.29,65.09,43.3,44.79c79.12,82.13,168,84.61,178.23,84.61h.89a10,10,0,0,0,9.29-13C218.93,76.38,248.16,46,251,43.18,269,27.8,287.83,20,306.86,20c33.63,0,57.79,24.49,58,24.71a10,10,0,0,0,7.22,3.08c10.7,0,22.31-3.55,32.54-7.92a123.06,123.06,0,0,1-19.72,17.88,10,10,0,0,0,4.66,18.14,28.42,28.42,0,0,0,2.84.14,58.18,58.18,0,0,0,12.23-1.68Z"/><path class="cls-1" d="M305,47.91a32.31,32.31,0,1,0,32.31,32.31A32.34,32.34,0,0,0,305,47.91Zm0,44.61a12.31,12.31,0,1,1,12.31-12.3A12.32,12.32,0,0,1,305,92.52Z"/></g></g></svg>