<svg id="Layer_1" data-name="Layer 1" xmlns="http://www.w3.org/2000/svg" xmlns:xlink="http://www.w3.org/1999/xlink" viewBox="0 0 1190.52 841.9"><defs><style>.cls-1{fill:#0c313f;}.cls-2{fill:#fefefe;}.cls-15,.cls-19,.cls-3{fill:#cfdcf0;}.cls-4{fill:#4d4e4e;}.cls-5{fill:#242424;}.cls-6{fill:#020202;}.cls-7{fill:#080910;}.cls-8{fill:url(#radial-gradient);}.cls-9{fill:url(#radial-gradient-2);}.cls-10{fill:#f3f3f3;}.cls-11{fill:#d9d9d8;}.cls-12{fill:#b2b2b2;}.cls-13{fill:#79a9be;}.cls-14,.cls-15{opacity:0.7;}.cls-16{fill:#be1e2d;}.cls-17{fill:#75a9c1;}.cls-18{fill:#1b1d28;}.cls-19{opacity:0.4;}.cls-20{fill:#612b1a;}.cls-21{fill:#ec1c24;opacity:0.5;}</style><radialGradient id="radial-gradient" cx="496.14" cy="413.35" r="15.57" gradientUnits="userSpaceOnUse"><stop offset="0" stop-color="#f05a28"/><stop offset="0.24" stop-color="#f2792a"/><stop offset="0.78" stop-color="#f7c92f"/><stop offset="1" stop-color="#f9ec31"/></radialGradient><radialGradient id="radial-gradient-2" cx="674.77" cy="408.87" r="15.57" xlink:href="#radial-gradient"/></defs><title>Favicons</title><path class="cls-1" d="M520.81,660.14c-15.62-13.06-32-33.78-34.6-40.14-6.62-3.16-30.25-14.39-36.68-17.2-.34-.15-35-15.71-65.94-64.68-6.91-10.94-13.54-19.63-19.38-27.29-16.66-21.87-28.7-37.67-30.87-80.26-2.83-55.75,21.2-103.61,43.07-139.44-2.65-5.39-8.68-18.59-11.56-32.59-3.91-19-1-92.53,18.14-137.36C396.74,89,409.12,63.87,432.55,57.25a44.92,44.92,0,0,1,12.23-1.93c19.39,0,26.92,17.44,37,46.17,6,17.14,16.18,43.84,26.63,67.4,17.25,38.91,23.55,42.49,24.21,42.77a6.78,6.78,0,0,0,2.63.45c2.74,0,6.55-1,11.37-2.23a162.85,162.85,0,0,1,44.19-6,238.8,238.8,0,0,1,44,4.5,6,6,0,0,0,1.3.16c4,0,7-17.18,7.9-22.83,1.57-9.3,3.86-18.45,6.29-28.14,3.59-14.38,7.31-29.25,9.55-47.48,1.55-12.7,5.19-31,13.69-45.81,8.64-15.1,20.66-23.34,34.76-23.83l.73,0c35.76,0,67.31,94,76.13,122.77,15.62,51,10,96.43,4,126.84,6.14,7.64,27.34,37.6,35.33,95.15,7.87,56.62-7.8,99-54.09,146.35-4.26,4.36-8.21,9-12.38,13.94-13.76,16.23-29.33,34.59-66.3,56.31-2.55,9.84-15.57,47-38.73,55.73Z"/><path class="cls-2" d="M532.88,702.81c2.53,22.29,6.42,42.83,20.7,51.88s46.64,15.94,67.11,0,21.18-51.88,21.18-51.88c.63-24.67,0-39.74,17.45-49.58s28.24-54.66,28.24-54.66c49.26-28.55,61-51.67,79.43-70.48,48.36-49.46,59.79-91.58,52.74-142.27C810.64,320.38,784,291.34,784,291.34c6.35-31.41,12.09-76-3.46-126.75s-44.74-120.26-72-119.31-40,34.27-43.79,65.36S652.66,164,648.85,186.48s-7.3,28.24-14.91,26.65c-70.44-13.32-90.83,8.25-103.21,3s-41.17-77.82-53.54-113-19.43-47.92-43.31-41.17c-21.9,6.19-33.79,31.65-46.41,61.16-18.91,44.25-21.42,117.08-17.85,134.46S382,291.35,382,291.35c-21.42,34.74-46.64,82.81-43.79,139s23.32,63.77,49.5,105.18,56.16,59.5,63.78,62.83S490,616.42,490,616.42s9.36,25.39,26.81,40S531.21,688.12,532.88,702.81Z"/><path class="cls-3" d="M583.74,656.89h0Z"/><path class="cls-3" d="M577.83,656.82l.89,0Z"/><path class="cls-3" d="M582.35,656.89h0Z"/><path class="cls-3" d="M583.1,656.89h0Z"/><path class="cls-3" d="M580,656.88h0Z"/><path class="cls-3" d="M581,656.89h0Z"/><path class="cls-3" d="M579,656.85l.69,0Z"/><path class="cls-3" d="M639,554.48c-9.1-9.6-31.09-17.06-56.2-15.16,0,0-67.54,2.94-62.31,61.44,4.42,49.43,39.75,55.39,57.2,56l-1.09,0a81.38,81.38,0,0,0-22.32-15.36c-23.37-11.11-29.39-27.26-25.78-49.1.17-1.19.33-1.88.33-1.88-.12.63-.22,1.26-.33,1.88-.76,5.65-1.42,23,16.26,36,17.12,12.58,33.42,15.27,39.3,28.59h1.14c10.95,0,49,3.16,63.73-30.41S648.12,564.08,639,554.48Zm5,54.09c5.63-13.8,3.88-40.6-15.83-51.71-21.91-12.35-46.52-11.35-46.52-11.35s26-6.5,51,9C652.44,566.8,654.32,595,644,608.57Z"/><path class="cls-1" d="M651,659.67l.07-.09c-11.73-1.11-29.26,11.52-66.31,10.86-30.64-.54-49.71-10.37-64.63-11,13.78,13.9,11.2,29.71,12.76,43.4,2.53,22.29,6.42,42.83,20.7,51.88s46.64,15.94,67.11,0,21.18-51.88,21.18-51.88C642.38,683,642.08,669.36,651,659.67Z"/><path class="cls-4" d="M646.31,663.38s-6.34,8.73-5.39,22.37-.48,32.37-4.13,37.6c2.46-13.88,3.33-24.59,2.7-36S640.92,665.13,646.31,663.38Z"/><path class="cls-4" d="M541.56,733.4c-2.34-14.51-2.47-31.44-4-46.85-1.84-18.43-9.5-23.38-12.61-24.65l-1.32-.41c13.76,13.9,11.18,29.7,12.74,43.38C537.52,715.06,539,724.88,541.56,733.4Z"/><path class="cls-5" d="M641.47,584.25c-1.32-16.19-14.47-31.52-54.89-31.52S533,568.06,531.69,584.25s3.32,34.08,27.42,46.86,26.32,17.68,27.47,17.68,3.37-4.9,27.47-17.68S642.8,600.44,641.47,584.25Z"/><path class="cls-6" d="M575.33,600.76a15.09,15.09,0,0,1-14,14.3c-8,.57-14.16-8.23-20.05-8.8s-5.9-3.62-3.84-5.5,5.34-1.46,11.6-10.65C554.75,581.75,576.32,580.22,575.33,600.76Z"/><path class="cls-6" d="M598.51,600.76a15.1,15.1,0,0,0,14,14.3c8,.57,14.15-8.23,20.05-8.8s5.89-3.62,3.83-5.5-5.34-1.46-11.6-10.65C619.1,581.75,597.52,580.22,598.51,600.76Z"/><ellipse class="cls-4" cx="585.21" cy="570.51" rx="27.86" ry="7.35"/><path class="cls-6" d="M590.2,645.93c-.23-13.87-1.1-40.87-4.26-60.62,0,0-3.27,38.8-3.13,60.49,2.57,2.07,3.27,3,3.77,3S587.76,647.91,590.2,645.93Z"/><path class="cls-6" d="M565.4,554.48c-24,4.46-32.65,16.84-33.71,29.77-1.23,15,2.7,31.53,22.56,44-.46-.37-18.46-14.87-20.12-34.46C532.29,572.28,547.52,558.17,565.4,554.48Z"/><path class="cls-6" d="M625.75,623.34c14-11.73,16.8-26,15.72-39.09-.87-10.65-6.86-20.93-22.37-26.72.31.15,19.92,9.85,20.5,31.55A45.89,45.89,0,0,1,625.75,623.34Z"/><path class="cls-1" d="M460.69,412.08s2.86-2.7,11.26,7.62,12.06,11.58,19.52,13.48,11.1,5.24,19.67,9,9.52,2.38,10.15-1,1.43-11.21-.79-13.14-2.22-4.31-2.54-8.12-8.76-15.5-18.16-18.84-18.33-1.31-26.06,3.1-7.85,6-10.08,6.54S461.25,411.37,460.69,412.08Z"/><path class="cls-7" d="M512.53,424.14c2.21-4.86-4.84-15.7-8.61-20.95a22.42,22.42,0,0,0-4.12-2,28.19,28.19,0,0,0-11.19-1.59c-11.73,2.7-17.82,9.87-16.18,10.67,2,1,3.81,2,4.64,5.92A19.67,19.67,0,0,0,494.2,431,21.74,21.74,0,0,0,512.53,424.14Z"/><path class="cls-8" d="M500.73,401.54c-.31-.13-.62-.26-.93-.37a29.58,29.58,0,0,0-5.32-1.33,28.21,28.21,0,0,0-14.12,7.24c-2.62,2.54-1.66,6.11.8,12.06s11.74,10.23,19.59,9.28a15.64,15.64,0,0,0,11.34-7.61c.52-1.41-.65-4.36-4.12-10C505.67,407.08,503.37,403.79,500.73,401.54Z"/><path class="cls-1" d="M711.38,407.59s-2.85-2.69-11.26,7.62-12.06,11.58-19.52,13.48-11.1,5.24-19.67,9.05-9.52,2.38-10.15-.95-1.43-11.22.79-13.15,2.22-4.31,2.54-8.11,8.76-15.51,18.16-18.84,18.33-1.31,26.06,3.09,7.86,6,10.08,6.54S710.83,406.88,711.38,407.59Z"/><path class="cls-7" d="M659.54,419.65c-2.21-4.86,4.84-15.69,8.61-20.95a22.37,22.37,0,0,1,4.12-2,28,28,0,0,1,11.19-1.6c11.73,2.7,17.82,9.87,16.18,10.67-2,1-3.81,2-4.64,5.92a19.66,19.66,0,0,1-17.13,14.87A21.76,21.76,0,0,1,659.54,419.65Z"/><path class="cls-9" d="M671.34,397.05l.93-.36a28.17,28.17,0,0,1,5.32-1.33,28.05,28.05,0,0,1,14.12,7.24c2.62,2.53,1.67,6.1-.79,12s-11.74,10.24-19.6,9.28A15.64,15.64,0,0,1,660,416.32c-.52-1.41.65-4.36,4.12-10C666.4,402.6,668.71,399.3,671.34,397.05Z"/><path class="cls-10" d="M382.24,276.39s19.51,23,71.68-16.92c-11,.94-12.69-6.35-12.69-6.35s16,8.93,30.79-3.76c0,0-9.87-1.17-13.63-9.4,0,0,10.34,2.59,17.16-4.46S497.4,215.05,500,211.05s19,12.89,26.06,8.43c-12.45-10.11-30.06-40.86-42.51-81.75s-31-70.27-37.13-70.87c-19.86-2-45.51,29.23-56.8,70.12s-8.95,64.2-12.24,69.61c8.46,20,9.4,28.44,9.4,28.44s-8-14.1-13.63-18.57c-2.29-.34-.95,24.47,4.1,50.9,0,0,9.94,7.62,21.93,4.09C399.17,271.45,397.29,277.33,382.24,276.39Z"/><path class="cls-11" d="M472,249.36s-9.87-1.17-13.63-9.4a20.86,20.86,0,0,0,5,.46c-6.94-3.21-14-10.65-12.74-27.72A12.72,12.72,0,0,1,461.21,216s-.38-18.57,1.93-23,8.41-2.35,8.41-2.35c2.12.47-3.52-26.09-15-49.12s-14.57-27-14.57-27-13.4,20.21-13.87,35.26C424.55,146,421.73,134,421.73,134a66.24,66.24,0,0,0-5.41,35.25c2.59,19.51-5.17,19-7.52,14.1-1.88,16.45,7.05,50.06,18.1,66.28a107.28,107.28,0,0,0,15.93,17.76c3.53-2.31,7.22-4.92,11.09-7.89-11,.94-12.69-6.35-12.69-6.35S457.21,262.05,472,249.36Z"/><path class="cls-12" d="M420.32,201.18s1.41,9.64,4.7,35.26c2.19,17.1-.64,33.14-2.76,41.92,8-3.21,17.44-8.4,28.33-16.4a25.85,25.85,0,0,1-19.46-16.12s9.16,4.46,32.9,3.76C433.24,238.08,420.32,201.18,420.32,201.18Z"/><path class="cls-1" d="M382.24,276.39s19.51,23,71.68-16.92c-11,.94-12.69-6.35-12.69-6.35s16,8.93,30.79-3.76c0,0-9.87-1.17-13.63-9.4,0,0,10.34,2.59,17.16-4.46S497.4,215.05,500,211.05s19,12.89,26.06,8.43c-12.45-10.11-30.06-40.86-42.51-81.75s-31-70.27-37.13-70.87c-19.86-2-45.51,29.23-56.8,70.12s-8.95,64.2-12.24,69.61c8.46,20,9.4,28.44,9.4,28.44s-8-14.1-13.63-18.57c-2.29-.34-.95,24.47,4.1,50.9,0,0,9.94,7.62,21.93,4.09C399.17,271.45,397.29,277.33,382.24,276.39Z"/><path class="cls-10" d="M472,249.36s-9.87-1.17-13.63-9.4a20.86,20.86,0,0,0,5,.46c-6.94-3.21-14-10.65-12.74-27.72A12.72,12.72,0,0,1,461.21,216s-.38-18.57,1.93-23,8.41-2.35,8.41-2.35c2.12.47-3.52-26.09-15-49.12s-14.57-27-14.57-27-13.4,20.21-13.87,35.26C424.55,146,421.73,134,421.73,134a66.24,66.24,0,0,0-5.41,35.25c2.59,19.51-5.17,19-7.52,14.1-1.88,16.45,7.05,50.06,18.1,66.28a107.28,107.28,0,0,0,15.93,17.76c3.53-2.31,7.22-4.92,11.09-7.89-11,.94-12.69-6.35-12.69-6.35S457.21,262.05,472,249.36Z"/><path class="cls-13" d="M420.32,201.18s1.41,9.64,4.7,35.26c2.19,17.1-.64,33.14-2.76,41.92,8-3.21,17.44-8.4,28.33-16.4a25.85,25.85,0,0,1-19.46-16.12s9.16,4.46,32.9,3.76C433.24,238.08,420.32,201.18,420.32,201.18Z"/><path class="cls-1" d="M776.69,276.39s-19.51,23-71.68-16.92c11,.94,12.69-6.35,12.69-6.35s-16,8.93-30.79-3.76c0,0,9.87-1.17,13.63-9.4,0,0-10.34,2.59-17.15-4.46s-11.09-23.45-13.68-27.44-23.65,14-30.7,9.52c12.46-10.11,18.07-40.39,25.39-82.5,8.8-50.69,19.12-82.65,38.87-84.56,27.76-2.7,45.6,37.41,66.05,86.46,16.32,39.15,8.95,64.2,12.24,69.61-8.46,20-9.4,28.44-9.4,28.44s8-14.1,13.63-18.57c2.3-.34,1,24.47-4.1,50.9,0,0-9.94,7.62-21.92,4.09C759.77,271.45,761.65,277.33,776.69,276.39Z"/><path class="cls-10" d="M686.91,249.36s9.87-1.17,13.63-9.4a20.86,20.86,0,0,1-5,.46c6.94-3.21,14-10.65,12.74-27.72A12.72,12.72,0,0,0,697.72,216s.38-18.57-1.92-23-8.42-2.35-8.42-2.35c-2.11.47,3.53-26.09,15-49.12s14.57-27,14.57-27,13.4,20.21,13.87,35.26C734.38,146,737.2,134,737.2,134a66.13,66.13,0,0,1,5.41,35.25c-2.59,19.51,5.17,19,7.52,14.1,1.88,16.45-7,50.06-18.1,66.28a107.28,107.28,0,0,1-15.93,17.76c-3.52-2.31-7.22-4.92-11.09-7.89,11,.94,12.69-6.35,12.69-6.35S701.72,262.05,686.91,249.36Z"/><path class="cls-13" d="M738.61,201.18s-1.41,9.64-4.7,35.26c-2.19,17.1.64,33.14,2.76,41.92-8-3.21-17.44-8.4-28.33-16.4a25.85,25.85,0,0,0,19.46-16.12s-9.16,4.46-32.9,3.76C725.69,238.08,738.61,201.18,738.61,201.18Z"/><path class="cls-1" d="M390.55,539.83c.59.9,1.19,1.79,1.79,2.66l.46.68c.72,1,1.44,2.07,2.16,3.07l.65.9,1.62,2.2.72,1c.69.92,1.39,1.83,2.08,2.72l.72.91c.48.62,1,1.23,1.45,1.83l1,1.19c.43.53.87,1,1.3,1.57l1.54,1.84,1.19,1.38,1.2,1.36.87,1q2.19,2.46,4.35,4.72l.54.56,1.46,1.51h0c-10.35-17.5-23.16-41.93-30.73-66.56l2.14,20s-13.57-29.49-7.14-64c0,0-9.89,12.6-7.8,29.74,0,0-10.05-36.62,12.08-61.51,0,0-12.58-.83-18.81,11.19,12-29.72,15.26-30.71,29.52-29.49,15,1.28,45.69,10.56,62.83-18.71s32.37-27.13,32.37-27.13-11-5.71-23.09,3.57c0,0,12-17.85,46-20.71,0,0-6.21-9.28-20.39-6.42a80.87,80.87,0,0,1,47.22-4.29c25.7,5.71,26.27,24.28,25.63,45.69s-1.84,48.91,16.25,48.91h.84c18.08,0,16.89-27.49,16.25-48.91s-.07-40,25.63-45.69a80.87,80.87,0,0,1,47.22,4.29c-14.18-2.86-20.39,6.42-20.39,6.42,36.83-1.43,46.51,12.14,46.51,12.14-16.58-6.43-23.61,5-23.61,5s16.94-11.4,34.08,17.87S756,402.26,771,401c14.36-1.22,17.59-.22,29.74,30.06-6.38-12.29-20.73-9.86-20.73-9.86,22.13,24.88,12.08,61.5,12.08,61.5,2.09-17.14-7.8-29.74-7.8-29.74,6.42,34.52-7.14,64-7.14,64l2.14-20a309.92,309.92,0,0,1-11.1,29.86C794.84,499.31,810,474,817,448.24h0c.39-1.43.75-2.86,1.08-4.3,0,0,0-.05,0-.07.33-1.41.63-2.82.91-4.24l0-.15c.28-1.39.53-2.78.76-4.18l0-.21c.23-1.38.43-2.75.62-4.13,0-.11,0-.23,0-.34.17-1.34.33-2.68.46-4,0-.16,0-.31,0-.46.13-1.31.24-2.62.33-3.94l0-.59c.09-1.27.16-2.54.21-3.82,0-.26,0-.52,0-.78,0-1.22.07-2.45.09-3.67,0-.32,0-.65,0-1,0-1.17,0-2.34,0-3.51,0-.42,0-.85,0-1.27,0-1.08-.05-2.16-.1-3.25,0-.51-.06-1-.09-1.54,0-1-.1-2-.17-3-.05-.66-.11-1.33-.17-2-.07-.87-.13-1.74-.21-2.62s-.18-1.76-.28-2.64c-.07-.67-.13-1.34-.21-2-.18-1.56-.39-3.13-.6-4.71-9.1-65.44-35.75-94.48-35.75-94.48s-53.83,9.53-93.57-32.12c0,0,3.57,3.09,14.28,3.81-19.76-7.14-21.18-11.66-22.14-14s6.19-2.38,9.29-4.76c0,0-10.48,1.9-17.85-12.14s-9-11.66-24.28-6.9c-13.7,4.28-21,2.78-30-14.38-35.12-4.8-55.87-.29-69.34,3.14-4.07,5.58-8.17,10.17-12.26,12.43-15.94,8.81-33.08.95-36.88-2.14s-20,15.53-20,15.53,14,2.93,22.6,0c0,0-13.06,9.53-24.75,13,0,0-11.7,4.33-21.65,5.23a53.35,53.35,0,0,0,13.33.48S453.26,274,435.33,277.06c5.47,2.62,22.37-3.33,22.37-3.33S437,287.05,416.76,289.2,382,291.34,382,291.34c-21.42,34.74-46.64,82.81-43.79,139s23.32,63.77,49.5,105.18c.73,1.16,1.46,2.28,2.2,3.4C390.13,539.21,390.34,539.52,390.55,539.83Z"/><path class="cls-13" d="M363.43,404.75C342,423,346.55,450.56,346.55,450.56s-12.39-26.18,16.88-61.17c18.65-22.28,6.6-39.89.55-66.16-15.23,30.16-27.83,66.51-25.77,107.1,1,18.8,3.89,32.16,8.35,43.17C346.47,450.53,349.87,423.36,363.43,404.75Z"/><path class="cls-13" d="M819.76,385.82c-5.68-40.9-18.23-67.59-26.84-81.85-13.33,23.14-8.86,44.36,5.33,61.86,21.42,26.42,17.85,65.33,17.85,65.33S814,412.24,804,399.84c6.07,21.08,7.48,49.3,7.79,63.93C821.92,438.62,823.61,413.5,819.76,385.82Z"/><path class="cls-3" d="M582.67,517.83s-12.61-16.42-44.26-3.57c0,0,8.09-21.89,33.08-23.8,0,0-8.09-7.83-23.09,2.39,0,0,2.86-11.43,23.09-21.19l-11-53.3,10,13.32L582.67,330.3,594.33,431l10.23-12.85-10.47,52.71s15.12,5.23,21.06,21.3c0,0-11.89-9.52-21.29-1.67,0,0,20-1.54,31,23.44C624.91,513.9,594.81,501.41,582.67,517.83Z"/><g class="cls-14"><path class="cls-3" d="M512.21,517.83l0-.49C512.17,519,512.3,519.26,512.21,517.83Z"/><path class="cls-3" d="M490,552.73s4.74,17.56,5.46,17.78S493.26,520,513,494.34c0,0-1.13,15.57-.77,23,.06-6.6,2.41-35.22,30.45-61.55-32.34,23.58-69.76,67.68-61.86,156.22l9.27,4.41S485.29,593.26,490,552.73Z"/></g><path class="cls-3" d="M658.82,517.83l0-.49C658.86,519,658.73,519.26,658.82,517.83Z"/><path class="cls-15" d="M628.4,455.79c28,26.33,30.39,54.95,30.45,61.55.36-7.43-.77-23-.77-23,19.69,25.7,16.72,76.39,17.44,76.17S681,552.73,681,552.73c4.76,40.53,0,63.69,0,63.69l1.39-.66c3.37-9.61,5.19-17.19,5.19-17.19,1.24-.72,2.45-1.43,3.64-2.15C693.65,518.21,658.78,478,628.4,455.79Z"/><path class="cls-4" d="M560.48,751.12a82.07,82.07,0,0,0,30.3,4.76c16.82-.64,25.41-5.12,33.32-10C611.41,754.93,593,767.14,560.48,751.12Z"/><path class="cls-16" d="M639.49,660c-3.69-.91-5.43-1.07-10.23-.56-7.93.84-19.84,7-34.39,4.13-3-.58-9.66-6.66-9.66-6.66-2.64,1.9-5.21,7.38-19.26,7.38-13.65,0-11.59-3.85-28.3-3.59,1,3.88,1.5,9.51-2.39,13.5-6.51,6.67-6.83,13.17-6.19,19.2s3.65,12.06,6.5,12.06-1.58,4.44,2.07,8.09,5.15,7.06,6.58,14.2,6.5,18.32,17.93,21.65,20.15,4.92,32.84,3.57,22.53-4.52,28.4-12.93,3.57-11,8.25-17.85,6.74-9.83,6.9-12.53-2-3.25,1-5.16,6.58-8.72,2.54-21C638.38,672.13,636.22,665.58,639.49,660Z"/><path class="cls-17" d="M588.27,653.31l-.65-.08Z"/><path class="cls-3" d="M724.05,417.52s-19.1-1.31-24.14,10.74c11.13-3.17,20-2.23,21.92-1.59s-13.65,3.5-19.36,9.84-15.54-5.06-27,3.5-14.59,12.23-28.24,10.55c20.63,7.85,21,4,32.25-3.58s19.47,3,27.09-2.48,17.27-21.72,48.55-22.49C742.45,417.48,724.05,417.52,724.05,417.52Z"/><path class="cls-3" d="M445,417.52s19.1-1.31,24.15,10.74c-11.14-3.17-20-2.23-21.93-1.59s13.65,3.5,19.36,9.84,15.55-5.06,27,3.5,14.59,12.23,28.24,10.55c-20.63,7.85-21,4-32.25-3.58s-19.47,3-27.09-2.48S445.15,422.78,413.88,422C426.57,417.48,445,417.52,445,417.52Z"/><path class="cls-18" d="M669.92,414.5a7.81,7.81,0,0,0,9.52-3.09c3.81-5.6-.93-15.68-11.78-8,3.1-.47,6.67,2.74,2.14,3.93S666.35,413.19,669.92,414.5Z"/><path class="cls-18" d="M501.49,419.17a7.8,7.8,0,0,1-9.52-3.1c-3.81-5.59.93-15.68,11.78-8-3.09-.48-6.66,2.74-2.14,3.93S505.06,417.86,501.49,419.17Z"/><path class="cls-19" d="M504.6,473.5s-13.13,5.85-20.27,4.9c0,0,9.95-5.24,13.3-9.52-26.15,8.57-29,13.53-44.71,9.62,0,0,15.7.85,21.89-9.62-28.08,6.66-33.32,9.07-45.69,5.49,0,0,25.7-3.33,28.56-10.6-15.71,5.58-35.23-7-40.94-19.27-2.85,20.57-5.7,25.87,3.58,35.36s10.23,11.86,12.13,19.95,6.19,3.34,3.81-9,15.23,20,15.23,31.41,7.61,3.81,4.76-10.47,9.85,4.91,7.78,32.44,7-2.18,12.21-25.4S496.31,481,504.6,473.5Z"/><path class="cls-19" d="M672.23,473.5s13.13,5.85,20.27,4.9c0,0-10-5.24-13.3-9.52,26.15,8.57,29,13.53,44.71,9.62,0,0-15.7.85-21.89-9.62,28.08,6.66,33.32,9.07,45.69,5.49,0,0-25.7-3.33-28.55-10.6,15.7,5.58,35.22-7,40.93-19.27,2.85,20.57,5.7,25.87-3.58,35.36s-10.23,11.86-12.13,19.95-6.19,3.34-3.81-9-15.23,20-15.23,31.41-7.61,3.81-4.76-10.47-9.85,4.91-7.78,32.44-7-2.18-12.21-25.4S680.52,481,672.23,473.5Z"/><path class="cls-20" d="M585.21,656.88c.3,8.12.48,16.24.65,24.36s.26,16.26,0,24.39c-.13,4.07-.36,8.13-.77,12.19s-1,8.09-1.67,12.08a17.54,17.54,0,0,0,.22,6,30.25,30.25,0,0,1,.42,3A16,16,0,0,1,584,742c-.29,2-.83,4-.58,6a17.86,17.86,0,0,0,.6,3,8.52,8.52,0,0,0,.56,1.4c.24.43.52.92,1,1.06a2,2,0,0,1-1.09-1,8.81,8.81,0,0,1-.63-1.4,17.86,17.86,0,0,1-.72-3c-.34-2,.14-4.12.35-6.1a15.74,15.74,0,0,0,0-3c-.09-1-.29-2-.48-3a30.49,30.49,0,0,1-.45-3,14.77,14.77,0,0,1,.08-3.12c.53-4,1.18-8,1.54-12.07s.56-8.08.67-12.13c.3-8.11.22-16.23.19-24.35S585.09,665,585.21,656.88Z"/><path class="cls-20" d="M560.48,664a8.07,8.07,0,0,0-.28,4,27.1,27.1,0,0,0,1,3.9,47.06,47.06,0,0,1,1.76,8,18.56,18.56,0,0,1,.08,4.15,9.48,9.48,0,0,1-1.22,4l-.27.47-.36.42a6.85,6.85,0,0,1-.73.78q-.74.71-1.53,1.38a11.9,11.9,0,0,1-3.57,2.25,11,11,0,0,1-2.07.42,3.27,3.27,0,0,0-.86.22,2.79,2.79,0,0,0-.73.48,3.8,3.8,0,0,0-1,1.46,2.08,2.08,0,0,0-.16.81.79.79,0,0,0,.06.3.73.73,0,0,0,.2.2c.2.14.49.2.9.42a1.34,1.34,0,0,1,.52.58,1.81,1.81,0,0,1,.12.66A8.65,8.65,0,0,1,552,701a3.1,3.1,0,0,0-.09.88l0,.17a.31.31,0,0,1,0,.1s0,.08.15.09a3.79,3.79,0,0,0,1.68-.51c1.17-.57,2.27-1.42,3.54-2a6.33,6.33,0,0,1,2-.63,3.21,3.21,0,0,1,1.11.09,3.64,3.64,0,0,1,1,.51,1.36,1.36,0,0,0,.81.27,1.48,1.48,0,0,0,.8-.36,4.42,4.42,0,0,0,1.11-1.59,11.85,11.85,0,0,0,.94-3.91,11.08,11.08,0,0,1-.69,4,4.83,4.83,0,0,1-1.12,1.77,1.87,1.87,0,0,1-1,.5,1.69,1.69,0,0,1-1.11-.29c-1.06-.84-2.42-.41-3.56.18s-2.22,1.46-3.48,2.12a8.49,8.49,0,0,1-1,.45,2.49,2.49,0,0,1-1.2.2,1,1,0,0,1-.7-.42,1.62,1.62,0,0,1-.17-.35c0-.11,0-.22-.06-.33a3.82,3.82,0,0,1,.1-1.14,9,9,0,0,0,.33-1.89,1.39,1.39,0,0,0-.06-.34.49.49,0,0,0-.16-.16,7.56,7.56,0,0,1-.94-.44,1.49,1.49,0,0,1-.51-.52,1.75,1.75,0,0,1-.17-.68,3.18,3.18,0,0,1,.2-1.18,4.84,4.84,0,0,1,1.26-1.86,3.74,3.74,0,0,1,1-.64,4.13,4.13,0,0,1,1.1-.3,10.74,10.74,0,0,0,1.91-.4,11.1,11.1,0,0,0,3.28-2,12.75,12.75,0,0,0,2.72-2.78,8.5,8.5,0,0,0,1.14-3.66,20.35,20.35,0,0,0,0-4,47.19,47.19,0,0,0-1.47-7.94,28.12,28.12,0,0,1-.84-4A7.76,7.76,0,0,1,560.48,664Z"/><path class="cls-20" d="M605.45,664.21a14.68,14.68,0,0,1,1.7,4.49,7.51,7.51,0,0,1,.05,2.46,3.14,3.14,0,0,0,.44,2.08c.74,1.3,1.91,2.55,2.33,4.27a5.4,5.4,0,0,1-.06,2.59,10.05,10.05,0,0,1-.38,1.17l-.37,1.12a20.54,20.54,0,0,0-1,4.54c-.14,1.54-.18,3.17-.2,4.71a32.38,32.38,0,0,0,.46,4.7,16.74,16.74,0,0,0,1.23,4.56,15.1,15.1,0,0,1-1.71-4.46,30.54,30.54,0,0,1-.74-4.77c-.07-.81-.06-1.62-.06-2.41s0-1.6.08-2.41a20.26,20.26,0,0,1,1-4.77c.23-.75.58-1.55.76-2.23a4.65,4.65,0,0,0,.08-2.13c-.28-1.44-1.35-2.63-2.09-4.14a3.81,3.81,0,0,1-.38-2.53,7.61,7.61,0,0,0,.09-2.29A16.33,16.33,0,0,0,605.45,664.21Z"/><path class="cls-20" d="M620.06,661.49a62.65,62.65,0,0,1,.83,8.09,43.77,43.77,0,0,1-.36,8.17c-.41,2.55.87,5,2.61,7a43,43,0,0,0,6.12,5.23c-1.18-.67-2.35-1.35-3.5-2.1a22.44,22.44,0,0,1-3.18-2.6,11.41,11.41,0,0,1-2.42-3.42,7.73,7.73,0,0,1-.62-4.22,63.25,63.25,0,0,0,.59-8c0-1.34,0-2.69,0-4S620.08,662.84,620.06,661.49Z"/><path class="cls-20" d="M616.52,728.15c-1.51-2.33-2.9-4.74-4.23-7.17s-2.59-4.92-3.73-7.47a35.76,35.76,0,0,1-1.49-4,8.78,8.78,0,0,1-.09-4.32,9.89,9.89,0,0,1,1.93-3.81,14.76,14.76,0,0,1,3.12-2.79c-2,1.85-3.82,4.13-4.29,6.76a8.44,8.44,0,0,0,.24,3.9,40.55,40.55,0,0,0,1.49,3.81c1.11,2.53,2.32,5,3.5,7.52l1.8,3.75Z"/><path class="cls-20" d="M570.71,691.39a33.34,33.34,0,0,1-1.3,5.37,25.92,25.92,0,0,1-2.22,5.11c-.23.41-.53.8-.78,1.18s-.5.73-.73,1.11a12.72,12.72,0,0,0-1.13,2.39,8.16,8.16,0,0,0-.14,5.26,7.18,7.18,0,0,1-.61-5.48,11.22,11.22,0,0,1,1.06-2.64c.23-.42.49-.81.75-1.2s.5-.73.72-1.13a42.11,42.11,0,0,0,2.36-4.87C569.38,694.81,570.06,693.11,570.71,691.39Z"/><path class="cls-20" d="M550.84,664.73a25.08,25.08,0,0,1,.65,9.34,20.63,20.63,0,0,1-1.08,4.63,19.31,19.31,0,0,1-2.26,4.2,23.81,23.81,0,0,1-3.15,3.56c-1.14,1.08-2.32,2.09-3.43,3.15a17.63,17.63,0,0,0-4.65,7.84,18.83,18.83,0,0,1,1.39-4.49,16.36,16.36,0,0,1,2.71-3.89c2.16-2.3,4.6-4.22,6.31-6.75a19,19,0,0,0,2.2-4,24.25,24.25,0,0,0,1.21-4.4,27.08,27.08,0,0,0,.38-4.59A31.5,31.5,0,0,0,550.84,664.73Z"/><path class="cls-20" d="M535.57,705.43c1.37-1.13,2.69-2.29,4-3.45s2.55-2.38,3.76-3.64a51.27,51.27,0,0,0,3.39-4,36,36,0,0,0,2.81-4.42,18.47,18.47,0,0,1-2.17,4.87,29.83,29.83,0,0,1-3.31,4.2A32.88,32.88,0,0,1,535.57,705.43Z"/><path class="cls-20" d="M541.56,703.28a16.5,16.5,0,0,1,2,4.45,9.66,9.66,0,0,1,.39,2.48c0,.91-.19,1.66-.19,2.42a5.71,5.71,0,0,0,1.62,4,43.41,43.41,0,0,0,3.4,3.38,17.87,17.87,0,0,1-4-2.86,7.4,7.4,0,0,1-1.52-2,5.56,5.56,0,0,1-.53-2.56c0-.85.23-1.69.25-2.4a11.36,11.36,0,0,0-.2-2.3A35.78,35.78,0,0,0,541.56,703.28Z"/><path class="cls-20" d="M562,702.68a4.93,4.93,0,0,1-1.71,1.39,5.89,5.89,0,0,1-2.15.64,7.22,7.22,0,0,1-1.14,0,5.87,5.87,0,0,1-1.1-.26,4.46,4.46,0,0,1-1.87-1.18,16.24,16.24,0,0,0,2.05.42,8.12,8.12,0,0,0,2,0A15.42,15.42,0,0,0,562,702.68Z"/><path class="cls-20" d="M557.62,705.43a15.53,15.53,0,0,1-.89,4,9.1,9.1,0,0,1-2.16,3.59,4.64,4.64,0,0,1-.93.65l-.54.23-.47.14a14,14,0,0,0-1.8.7,4.62,4.62,0,0,0-1.52,1.08,2,2,0,0,0-.45.8,2.41,2.41,0,0,0,0,1,2.12,2.12,0,0,1,.09-2,4.45,4.45,0,0,1,1.54-1.48,9.59,9.59,0,0,1,1.88-.91l.49-.17.38-.18a1.56,1.56,0,0,0,.36-.23,2.2,2.2,0,0,0,.34-.28A11.08,11.08,0,0,0,556,709.1C556.59,707.91,557.12,706.68,557.62,705.43Z"/><path class="cls-20" d="M551.38,738.39c1.08-.46,2.14-.93,3.16-1.49a25.86,25.86,0,0,0,3-1.79,17.89,17.89,0,0,0,2.62-2.19,19.41,19.41,0,0,0,2.11-2.7,51.13,51.13,0,0,1,4.95-5,11.2,11.2,0,0,0,2.94-6.09,11.63,11.63,0,0,1-.56,3.49,10.11,10.11,0,0,1-1.81,3.11c-1.55,1.84-3.38,3.27-4.72,5.11a18.58,18.58,0,0,1-2.25,2.77,15.68,15.68,0,0,1-2.86,2.16A21.92,21.92,0,0,1,551.38,738.39Z"/><path class="cls-20" d="M553.16,742.67a46.55,46.55,0,0,0,4.82-2.94,7.34,7.34,0,0,1,2.56-1.5,4,4,0,0,1,3.12.37,6.15,6.15,0,0,1,2.09,2.22,14,14,0,0,1,1.16,2.68,10,10,0,0,1,.34,5.71,9.34,9.34,0,0,0-.24-2.79,15.37,15.37,0,0,0-.83-2.65,16.54,16.54,0,0,0-1.24-2.45,5.19,5.19,0,0,0-1.78-1.85,3,3,0,0,0-2.37-.32,4.11,4.11,0,0,0-1.2.47c-.39.21-.75.49-1.18.75A22.46,22.46,0,0,1,553.16,742.67Z"/><path class="cls-20" d="M582.93,693.92a7.23,7.23,0,0,1-.5,3.25,6.75,6.75,0,0,1-.8,1.47c-.33.47-.73.87-1,1.28a1.92,1.92,0,0,0-.53,1.3,3.66,3.66,0,0,0,.66,1.35,13,13,0,0,1,.82,1.47c.23.49.46,1,.72,1.45A12.65,12.65,0,0,1,583,707a3.57,3.57,0,0,1,.15,1.83,6,6,0,0,1-.22.86l-.19.45-.26.4a6.53,6.53,0,0,1-1.33,1.17,8,8,0,0,0-2.27,2.09,6,6,0,0,0-.87,2.88,9.45,9.45,0,0,1-2.76,6.18,3.64,3.64,0,0,1-1.63.89,3.79,3.79,0,0,1-.46,0,.38.38,0,0,0-.19.06,1.14,1.14,0,0,0-.39.44,4.77,4.77,0,0,0-.29,2.92,6.91,6.91,0,0,0,.17.76,4.15,4.15,0,0,1,.16.88,5.28,5.28,0,0,1-.16,1.73,7.9,7.9,0,0,1-1.58,3,8.93,8.93,0,0,1-5.77,3,9,9,0,0,0,5.39-3.33,7.43,7.43,0,0,0,1.35-2.82,5.22,5.22,0,0,0,.08-1.52,3.85,3.85,0,0,0-.17-.73,7.84,7.84,0,0,1-.23-.83,5.23,5.23,0,0,1,.29-3.49,2,2,0,0,1,.7-.77,1.25,1.25,0,0,1,.58-.19,1.63,1.63,0,0,0,.35,0,2.86,2.86,0,0,0,1.2-.7A8.53,8.53,0,0,0,577,716.6a6.79,6.79,0,0,1,1.07-3.31,8.66,8.66,0,0,1,2.54-2.31,5.64,5.64,0,0,0,1.15-1l.19-.27.13-.3a7.44,7.44,0,0,0,.2-.74,4.36,4.36,0,0,0-.72-2.86c-.24-.49-.47-1-.68-1.51a12,12,0,0,0-.72-1.43,4,4,0,0,1-.68-1.62,2.35,2.35,0,0,1,.71-1.65c.37-.44.78-.79,1.11-1.2a7,7,0,0,0,.86-1.35A7.7,7.7,0,0,0,582.93,693.92Z"/><path class="cls-20" d="M581.66,716a6.84,6.84,0,0,1,0,3.83,6.16,6.16,0,0,1-2.27,3.25,9.77,9.77,0,0,1-1.73.94,4.9,4.9,0,0,0-1.48.84,3.46,3.46,0,0,0-.8,1.49,13.39,13.39,0,0,0-.42,1.82,8.69,8.69,0,0,1-.06-1.91,3.5,3.5,0,0,1,.7-1.91,4.71,4.71,0,0,1,1.65-1.19,9.24,9.24,0,0,0,1.55-.89,6.31,6.31,0,0,0,2.13-2.7A10,10,0,0,0,581.66,716Z"/><path class="cls-20" d="M572.06,719.11a9,9,0,0,1,0-5.41,8.88,8.88,0,0,1,1.27-2.49c.28-.39.55-.73.82-1.06a12.39,12.39,0,0,0,.71-1.07,9.33,9.33,0,0,0,1.49-4.81,17.73,17.73,0,0,0-.79-5.19,12.52,12.52,0,0,1,1.57,5.19,9,9,0,0,1-.28,2.78,10.22,10.22,0,0,1-1.13,2.55,11.61,11.61,0,0,1-.8,1.14l-.84,1a9,9,0,0,0-1.28,2.19A11,11,0,0,0,572.06,719.11Z"/><path class="cls-20" d="M586.38,695.91a14.78,14.78,0,0,0,2.2,6.83,8.7,8.7,0,0,1,1,3.59c.14,1.23.17,2.46.25,3.66a18.57,18.57,0,0,0,.53,3.52,29.52,29.52,0,0,0,1.27,3.35,5.54,5.54,0,0,0,2,2.61c.87.46,2,0,2.83-.75l.64-.51.16.82a2.41,2.41,0,0,0,.26.77.72.72,0,0,0,.48.38,2.18,2.18,0,0,0,1.51-.43l.7-.45,0,.82a25.11,25.11,0,0,0,1.11,6,12.4,12.4,0,0,0,2.94,5.19,6.9,6.9,0,0,0,1.16.92c.43.28.9.53,1.33.82a16.64,16.64,0,0,1,2.52,1.9,8.75,8.75,0,0,1,1.95,2.49,5.69,5.69,0,0,1,.54,3.06,5.85,5.85,0,0,0-.75-3,8.25,8.25,0,0,0-2-2.27,20.28,20.28,0,0,0-2.54-1.73c-.43-.27-.89-.49-1.34-.76a7.43,7.43,0,0,1-1.32-1,12.38,12.38,0,0,1-3.3-5.43,26.79,26.79,0,0,1-1.23-6.22l.75.37a4.56,4.56,0,0,1-1,.51,2.36,2.36,0,0,1-1.25.09,1.69,1.69,0,0,1-1.09-.81,3.33,3.33,0,0,1-.4-1.13l.8.31a5.39,5.39,0,0,1-1.75,1,2.77,2.77,0,0,1-2.13-.14,4.27,4.27,0,0,1-1.48-1.41,10.44,10.44,0,0,1-.91-1.67,28.65,28.65,0,0,1-1.27-3.5,16.24,16.24,0,0,1-.46-3.71c0-1.23,0-2.45-.12-3.64a8.4,8.4,0,0,0-.84-3.41A14.31,14.31,0,0,1,586.38,695.91Z"/><path class="cls-20" d="M589.36,685.91a2.85,2.85,0,0,1,.82.87c.24.32.46.66.67,1,.43.68.84,1.37,1.24,2.07.77,1.41,1.48,2.86,2.13,4.33A39.73,39.73,0,0,1,596,698.7c.52,1.55.76,3.19,1.11,4.7a48.73,48.73,0,0,0,3,9q1,2.19,2.12,4.27c.75,1.41,1.58,2.77,2.42,4.15a44.4,44.4,0,0,1-5.23-8.09,39.65,39.65,0,0,1-3.28-9.11c-.18-.78-.32-1.6-.47-2.36s-.35-1.53-.56-2.29c-.43-1.52-1-3-1.53-4.5s-1.19-3-1.87-4.4c-.32-.73-.66-1.45-1-2.16-.18-.35-.37-.71-.56-1A3,3,0,0,0,589.36,685.91Z"/><path class="cls-20" d="M592.29,679.25a18.19,18.19,0,0,1,3,3.53,23.92,23.92,0,0,1,2.17,4.09c.31.71.55,1.45.8,2.18s.43,1.49.55,2.26a18.72,18.72,0,0,1,.35,4.6c-.34-1.5-.66-3-1.11-4.42a37.33,37.33,0,0,0-1.51-4.23,42.06,42.06,0,0,0-1.92-4.08C593.87,681.85,593.13,680.53,592.29,679.25Z"/><path class="cls-21" d="M586,657.59c-.5-.43-.8-.71-.8-.71-2.64,1.9-5.21,7.38-19.26,7.38-13.65,0-11.59-3.85-28.3-3.59,1,3.88,1.5,9.51-2.39,13.5-6.51,6.67-6.83,13.17-6.19,19.2s3.65,12.06,6.5,12.06-1.58,4.44,2.07,8.09,5.15,7.06,6.58,14.2,6.5,18.32,17.93,21.65c7.69,2.25,14.16,3.69,21.44,4Z"/></svg>