<svg xmlns="http://www.w3.org/2000/svg" viewBox="0 0 22 21.46"><defs><style>.cls-1{fill:#fff;fill-rule:evenodd;}</style></defs><g id="Layer_2" data-name="Layer 2"><g id="Layer_1-2" data-name="Layer 1"><path class="cls-1" d="M11,0A11,11,0,0,0,7.52,21.44c.55.1.75-.24.75-.53s0-1,0-1.87c-3.06.66-3.71-1.48-3.71-1.48A2.92,2.92,0,0,0,3.33,16c-1-.68.08-.67.08-.67a2.31,2.31,0,0,1,1.68,1.14,2.34,2.34,0,0,0,3.2.91A2.39,2.39,0,0,1,9,15.86c-2.44-.28-5-1.22-5-5.44A4.27,4.27,0,0,1,5.11,7.47a4,4,0,0,1,.11-2.91s.93-.29,3,1.13a10.4,10.4,0,0,1,5.5,0c2.1-1.42,3-1.13,3-1.13a4,4,0,0,1,.11,2.91,4.27,4.27,0,0,1,1.13,3c0,4.23-2.58,5.16-5,5.43a2.61,2.61,0,0,1,.75,2c0,1.47,0,2.66,0,3s.2.63.75.53A11,11,0,0,0,11,0"/></g></g></svg>