<svg xmlns="http://www.w3.org/2000/svg" viewBox="0 0 455.86 329.55"><defs><style>.cls-1{fill:#fff;}</style></defs><g id="Layer_2" data-name="Layer 2"><g id="Layer_1-2" data-name="Layer 1"><path class="cls-1" d="M52.62,75.88,155,164.78,52.62,253.67A14.77,14.77,0,1,0,72,276l105.6-91.65,40.67,35.29a14.77,14.77,0,0,0,19.37,0l40.66-35.29L383.88,276a14.78,14.78,0,0,0,19.37-22.32L300.82,164.78l102.43-88.9a14.78,14.78,0,0,0-19.37-22.32L227.93,188.91,72,53.56A14.77,14.77,0,1,0,52.62,75.88Z"/><path class="cls-1" d="M441.09,0H14.77A14.78,14.78,0,0,0,0,14.78v300a14.77,14.77,0,0,0,14.77,14.77H441.09a14.77,14.77,0,0,0,14.77-14.77v-300A14.78,14.78,0,0,0,441.09,0ZM426.31,300H29.55V29.55H426.31V300Z"/></g></g></svg>